<?xml version="1.0" encoding="UTF-8"?>
<svg width="160px" height="160px" viewBox="0 0 160 160" version="1.1" xmlns="http://www.w3.org/2000/svg" xmlns:xlink="http://www.w3.org/1999/xlink">
    <!-- Generator: Sketch 52.3 (67297) - http://www.bohemiancoding.com/sketch -->
    <title>Combined Shape</title>
    <desc>Created with Sketch.</desc>
    <g id="Page-1" stroke="none" stroke-width="1" fill="none" fill-rule="evenodd">
        <g id="Artboard" transform="translate(-10.000000, -10.000000)" fill="#D8D8D8" fill-rule="nonzero">
            <path d="M20,10 L160,10 C165.522847,10 170,14.4771525 170,20 L170,160 C170,165.522847 165.522847,170 160,170 L20,170 C14.4771525,170 10,165.522847 10,160 L10,20 C10,14.4771525 14.4771525,10 20,10 Z M51.59,33.36 L51.59,151 L71.48,151 L71.48,103.23 L97.66,103.23 C103.666697,103.23 109.021643,102.238343 113.725,100.255 C118.428357,98.2716568 122.366651,95.6650161 125.54,92.435 C128.713349,89.2049839 131.121658,85.4650213 132.765,81.215 C134.408342,76.9649787 135.23,72.6300221 135.23,68.21 C135.23,64.0166457 134.408342,59.8516873 132.765,55.715 C131.121658,51.5783126 128.713349,47.8383501 125.54,44.495 C122.366651,41.1516499 118.45669,38.4600102 113.81,36.42 C109.16331,34.3799898 103.780031,33.36 97.66,33.36 L51.59,33.36 Z M71.48,86.4 L71.48,50.53 L97.66,50.53 C102.760026,50.53 106.98165,52.1733169 110.325,55.46 C113.66835,58.7466831 115.34,62.9399745 115.34,68.04 C115.34,70.6466797 114.858338,73.0549889 113.895,75.265 C112.931662,77.475011 111.656675,79.4016584 110.07,81.045 C108.483325,82.6883415 106.613344,83.9916618 104.46,84.955 C102.306656,85.9183381 100.040012,86.4 97.66,86.4 L71.48,86.4 Z" id="Combined-Shape"></path>
        </g>
    </g>
</svg>